<svg width="34" height="30" viewBox="0 0 34 30" fill="none" xmlns="http://www.w3.org/2000/svg">
    <path d="M0.333376 9.99002C0.332498 8.67702 0.590629 7.37675 1.09299 6.16366C1.59535 4.95056 2.33207 3.84848 3.26096 2.92052C4.18985 1.99256 5.29267 1.25694 6.50626 0.755796C7.71985 0.254651 9.02038 -0.00217835 10.3334 1.39171e-05H23.6667C29.1884 1.39171e-05 33.6667 4.49168 33.6667 9.99002V30H10.3334C4.81171 30 0.333376 25.5083 0.333376 20.01V9.99002ZM30.3334 26.6667V9.99002C30.329 8.22418 29.6249 6.53208 28.3753 5.28438C27.1257 4.03668 25.4326 3.33511 23.6667 3.33335H10.3334C9.45812 3.33115 8.59105 3.50176 7.78187 3.83539C6.9727 4.16902 6.23734 4.6591 5.61798 5.27754C4.99861 5.89597 4.50743 6.63059 4.17258 7.43927C3.83774 8.24794 3.66583 9.11476 3.66671 9.99002V20.01C3.67112 21.7758 4.37523 23.468 5.62481 24.7157C6.87438 25.9634 8.56754 26.6649 10.3334 26.6667H30.3334ZM20.3334 13.3333H23.6667V16.6667H20.3334V13.3333ZM10.3334 13.3333H13.6667V16.6667H10.3334V13.3333Z" fill="white"/>
    <path d="M0.333376 9.99002C0.332498 8.67702 0.590629 7.37675 1.09299 6.16366C1.59535 4.95056 2.33207 3.84848 3.26096 2.92052C4.18985 1.99256 5.29267 1.25694 6.50626 0.755796C7.71985 0.254651 9.02038 -0.00217835 10.3334 1.39171e-05H23.6667C29.1884 1.39171e-05 33.6667 4.49168 33.6667 9.99002V30H10.3334C4.81171 30 0.333376 25.5083 0.333376 20.01V9.99002ZM30.3334 26.6667V9.99002C30.329 8.22418 29.6249 6.53208 28.3753 5.28438C27.1257 4.03668 25.4326 3.33511 23.6667 3.33335H10.3334C9.45812 3.33115 8.59105 3.50176 7.78187 3.83539C6.9727 4.16902 6.23734 4.6591 5.61798 5.27754C4.99861 5.89597 4.50743 6.63059 4.17258 7.43927C3.83774 8.24794 3.66583 9.11476 3.66671 9.99002V20.01C3.67112 21.7758 4.37523 23.468 5.62481 24.7157C6.87438 25.9634 8.56754 26.6649 10.3334 26.6667H30.3334ZM20.3334 13.3333H23.6667V16.6667H20.3334V13.3333ZM10.3334 13.3333H13.6667V16.6667H10.3334V13.3333Z" fill="url(#paint0_linear)"/>
    <defs>
        <linearGradient id="paint0_linear" x1="17" y1="0" x2="17" y2="30" gradientUnits="userSpaceOnUse">
            <stop stop-color="white"/>
            <stop offset="1" stop-color="white" stop-opacity="0"/>
        </linearGradient>
    </defs>
</svg>
