<svg width="18" height="18" viewBox="0 0 18 18" fill="none" xmlns="http://www.w3.org/2000/svg">
    <path fill-rule="evenodd" clip-rule="evenodd" d="M12 6.75001C12 3.85051 9.64951 1.5 6.75001 1.5C3.85051 1.5 1.5 3.85051 1.5 6.75001C1.5 9.64951 3.85051 12 6.75001 12C9.64951 12 12 9.64951 12 6.75001ZM6.75001 0C10.478 0 13.5 3.02208 13.5 6.75001C13.5 8.43241 12.8845 9.97111 11.8664 11.1531L17.7641 16.7039C18.0656 16.9877 18.08 17.4624 17.7962 17.7641C17.5123 18.0656 17.0376 18.08 16.736 17.7962L10.7651 12.1766C9.64299 13.0082 8.25399 13.5 6.75001 13.5C3.02208 13.5 0 10.478 0 6.75001C0 3.02208 3.02208 0 6.75001 0Z" fill="#243443"/>
</svg>
